<svg width="50" height="50" viewBox="0 0 50 50" fill="none" xmlns="http://www.w3.org/2000/svg">
<path d="M22.5376 39.1445C21.9628 39.1445 21.4966 39.6106 21.4966 40.1856V41.5805C21.4966 42.1553 21.9627 42.6215 22.5376 42.6215C23.1125 42.6215 23.5786 42.1554 23.5786 41.5805V40.1856C23.5786 39.6107 23.1125 39.1445 22.5376 39.1445Z" fill="black"/>
<path d="M18.5498 26.4246C17.975 26.4246 17.5088 26.8907 17.5088 27.4656V27.7755C17.5088 28.3503 17.9749 28.8165 18.5498 28.8165C19.1247 28.8165 19.5908 28.3504 19.5908 27.7755V27.4656C19.5908 26.8906 19.1246 26.4246 18.5498 26.4246Z" fill="black"/>
<path d="M19.9789 17.6228C19.4041 17.6228 18.9379 18.0889 18.9379 18.6638C18.9379 19.0633 18.554 19.3883 18.0822 19.3883C17.6099 19.3883 17.2256 19.0633 17.2256 18.6638C17.2256 18.089 16.7595 17.6228 16.1846 17.6228C15.6097 17.6228 15.1436 18.0889 15.1436 18.6638C15.1436 20.2114 16.4619 21.4704 18.0822 21.4704C19.7022 21.4704 21.02 20.2114 21.02 18.6638C21.02 18.0889 20.5538 17.6228 19.9789 17.6228Z" fill="black"/>
<path d="M49.4486 3.44918L49.4485 3.44889C49.4481 3.44693 49.4474 3.44391 49.4472 3.44234C49.4456 3.43502 49.4431 3.42808 49.4414 3.42066C49.4349 3.39224 49.4278 3.36412 49.4191 3.33668C49.4159 3.32672 49.4119 3.31715 49.4085 3.30709C49.3997 3.28209 49.3904 3.25719 49.3799 3.23326C49.3752 3.22252 49.37 3.21236 49.3648 3.20181C49.354 3.17935 49.3427 3.15718 49.3304 3.1357C49.3241 3.12486 49.3177 3.11422 49.311 3.10367C49.2985 3.08345 49.2853 3.06392 49.2715 3.04478C49.2638 3.03394 49.2558 3.0233 49.2477 3.01294C49.2336 2.99488 49.2187 2.9775 49.2035 2.96041C49.1944 2.95035 49.1856 2.94009 49.1763 2.93033C49.1598 2.91324 49.1424 2.89712 49.1247 2.88121C49.1155 2.8729 49.1067 2.86412 49.0973 2.85621C49.071 2.83413 49.0438 2.81333 49.0155 2.7938C49.0141 2.79283 49.0129 2.79185 49.0115 2.79087C48.9812 2.77036 48.9498 2.75171 48.9174 2.73443C48.9156 2.73345 48.914 2.73228 48.9123 2.7314C48.9055 2.72779 48.8982 2.72525 48.8914 2.72183C48.8671 2.70962 48.8425 2.6981 48.8172 2.68794C48.8065 2.68355 48.7956 2.67993 48.7847 2.67593C48.7611 2.66724 48.7373 2.65923 48.7131 2.6523C48.7013 2.64898 48.6893 2.64585 48.6773 2.64292C48.654 2.63716 48.6305 2.63218 48.6067 2.62808C48.5937 2.62583 48.5805 2.62359 48.5674 2.62183C48.5452 2.6188 48.5228 2.61685 48.5002 2.61529C48.4853 2.61421 48.4704 2.61314 48.4554 2.61275C48.4351 2.61226 48.4146 2.61275 48.394 2.61343C48.3771 2.61392 48.3603 2.61431 48.3433 2.61558C48.3387 2.61587 48.3341 2.61568 48.3294 2.61616C47.9924 2.648 40.253 3.42623 33.52 7.89755C32.3445 6.98007 29.6411 5.39402 24.9995 5.39402C20.3579 5.39402 17.6546 6.97997 16.479 7.89755C9.74636 3.42642 2.00714 2.648 1.67003 2.61626C1.66504 2.61587 1.66016 2.61607 1.65518 2.61568C1.63917 2.61441 1.62335 2.61411 1.60753 2.61363C1.58604 2.61294 1.56465 2.61226 1.54336 2.61294C1.52891 2.61333 1.51456 2.6145 1.5001 2.61548C1.47735 2.61704 1.45459 2.61909 1.43223 2.62212C1.41875 2.62388 1.40557 2.62622 1.39239 2.62847C1.36914 2.63257 1.34639 2.63736 1.32364 2.64292C1.31075 2.64605 1.29785 2.64937 1.28516 2.65298C1.2626 2.65952 1.24043 2.66695 1.21846 2.67486C1.20586 2.67945 1.19307 2.68384 1.18067 2.68892C1.1586 2.6979 1.13721 2.70806 1.11592 2.71851C1.10645 2.7231 1.09668 2.72671 1.0874 2.7315C1.08496 2.73277 1.08281 2.73443 1.08047 2.73579C1.05508 2.74947 1.03057 2.76441 1.00654 2.78013C0.991016 2.79019 0.976075 2.80093 0.961036 2.81177C0.941895 2.82564 0.922852 2.8396 0.90459 2.85474C0.891992 2.86529 0.880371 2.87671 0.868261 2.88785C0.853808 2.90113 0.839355 2.91441 0.825683 2.92847C0.814355 2.94009 0.80371 2.9524 0.79287 2.9646C0.779394 2.97974 0.766405 2.99498 0.753905 3.01089C0.744432 3.02291 0.73535 3.03511 0.726561 3.04761C0.713963 3.06519 0.701952 3.08326 0.690428 3.10162C0.682908 3.11353 0.675682 3.12545 0.668651 3.13765C0.657029 3.15797 0.646385 3.17886 0.636131 3.19996C0.630564 3.21148 0.6249 3.22271 0.619627 3.23443C0.60947 3.25767 0.600584 3.2815 0.592087 3.30553C0.588376 3.31617 0.58408 3.32652 0.580662 3.33736C0.572165 3.36422 0.565134 3.39195 0.558786 3.41978C0.557029 3.4275 0.554392 3.43482 0.552732 3.44244C0.552439 3.4441 0.551755 3.44713 0.551364 3.44918C0.46484 3.87086 -1.16086 12.0336 1.61465 16.0093C2.46378 17.2258 3.62326 17.9513 5.06117 18.1664C7.38159 18.5128 9.94616 18.6715 11.3628 18.7378C11.1005 21.2058 10.2265 23.9141 8.70641 26.9793C6.93364 30.5551 7.03823 33.8135 9.01676 36.664C10.5537 38.8782 12.9185 40.4467 14.9037 41.7114C15.0709 43.6183 16.0648 45.1113 17.8035 46.052C19.4644 46.9506 21.8183 47.3872 25 47.3872C28.1817 47.3872 30.5357 46.9505 32.1964 46.052C33.9531 45.1016 34.949 43.5873 35.1007 41.652C36.0277 40.9404 36.8683 40.3106 37.6203 39.7471C40.8162 37.3527 42.5767 36.0336 43.1638 34.2392C43.8048 32.2795 42.8849 30.1891 41.2937 26.9791C39.7737 23.9142 38.8998 21.206 38.6373 18.7377C40.0539 18.6713 42.6186 18.5126 44.9391 18.1662C46.3768 17.9513 47.5362 17.2257 48.3853 16.0092C51.1606 12.0339 49.5353 3.87203 49.4486 3.44918ZM5.36839 16.1071C4.50735 15.9783 3.83811 15.5569 3.32238 14.8187C1.73204 12.5426 1.99063 7.84902 2.37325 5.14851C8.26705 7.92431 11.245 11.7047 11.4373 16.6559C10.0551 16.5899 7.56392 16.4349 5.36839 16.1071ZM24.9998 45.3053C17.7934 45.3053 16.9601 42.9186 16.9601 41.1236C16.9601 39.1793 17.9153 37.1917 24.9998 37.1917C32.0843 37.1917 33.0395 39.1793 33.0395 41.1236C33.0395 42.9186 32.2061 45.3053 24.9998 45.3053ZM39.428 27.9041C40.9351 30.9439 41.5464 32.4865 41.1847 33.5919C40.802 34.7616 39.1344 36.0111 36.3718 38.081C35.8954 38.4378 35.3825 38.8223 34.8353 39.2365C34.4441 38.0617 33.6513 37.1349 32.4661 36.4661C38.6859 33.5026 38.5542 28.8897 38.5452 28.6887C38.5296 28.3406 38.3407 28.0234 38.0422 27.8437C37.7437 27.6638 37.375 27.6454 37.06 27.7945L32.4906 29.9562V27.4655C32.4906 26.8907 32.0245 26.4245 31.4496 26.4245C30.8746 26.4245 30.4085 26.8906 30.4085 27.4655V35.6587C28.9927 35.2869 27.2256 35.1096 24.9995 35.1096C22.7734 35.1096 21.0063 35.2869 19.5905 35.6587V30.343C19.5905 29.7682 19.1244 29.302 18.5495 29.302C18.1 29.302 17.7182 29.5875 17.5725 29.9865L12.9392 27.7945C12.6242 27.6453 12.2557 27.6638 11.9569 27.8437C11.6584 28.0235 11.4695 28.3406 11.4539 28.6887C11.4449 28.8896 11.3132 33.5025 17.533 36.4661C16.3045 37.1592 15.5 38.1312 15.1249 39.3676C10.8159 36.4863 7.83062 33.432 10.5711 27.9041C12.4406 24.1341 13.4044 20.8219 13.5176 17.7785C13.6933 13.1122 11.8504 9.22901 8.02691 6.17635C10.5073 6.98817 13.3588 8.21894 15.9584 10.0653C16.1405 10.1946 16.3514 10.2576 16.5608 10.2576C16.8511 10.2576 17.1387 10.1365 17.3433 9.90382C17.3647 9.8797 19.6269 7.47616 24.9997 7.47616C30.3807 7.47616 32.5715 9.81144 32.6561 9.90382C32.8607 10.1366 33.1483 10.2577 33.4386 10.2576C33.648 10.2576 33.8588 10.1947 34.041 10.0653C36.6343 8.22353 39.485 6.99354 41.9664 6.18104C38.147 9.23282 36.306 13.1145 36.4817 17.7778C36.595 20.8219 37.5586 24.1342 39.428 27.9041ZM32.4909 34.1051V32.2596L35.9899 30.6043C35.4996 31.6367 34.5048 32.9491 32.4909 34.1051ZM17.5087 32.2596V34.1048C15.4991 32.9509 14.5044 31.64 14.0131 30.6058L17.5087 32.2596ZM46.6782 14.8175C46.1624 15.5565 45.4927 15.9784 44.6315 16.1071C42.4358 16.4349 39.9445 16.59 38.5623 16.656C38.7543 11.7043 41.7322 7.92421 47.6272 5.14822C48.0112 7.84628 48.271 12.5359 46.6782 14.8175Z" fill="black"/>
<path d="M27.4619 39.1445C26.8871 39.1445 26.4209 39.6106 26.4209 40.1856V41.5805C26.4209 42.1553 26.887 42.6215 27.4619 42.6215C28.0368 42.6215 28.5029 42.1554 28.5029 41.5805V40.1856C28.5029 39.6107 28.0368 39.1445 27.4619 39.1445Z" fill="black"/>
<path d="M34.0806 17.6228C33.5058 17.6228 33.0396 18.0889 33.0396 18.6638C33.0396 19.0633 32.6557 19.3883 32.1838 19.3883C31.712 19.3883 31.3281 19.0633 31.3281 18.6638C31.3281 18.089 30.862 17.6228 30.2871 17.6228C29.7122 17.6228 29.2461 18.0889 29.2461 18.6638C29.2461 20.2114 30.5639 21.4704 32.1838 21.4704C33.8037 21.4704 35.1216 20.2114 35.1216 18.6638C35.1216 18.0889 34.6555 17.6228 34.0806 17.6228Z" fill="black"/>
</svg>
