<svg width="19" height="18" viewBox="0 0 19 18" fill="none" xmlns="http://www.w3.org/2000/svg">
<path d="M2.91927 0C2.30986 0 1.69736 0.229667 1.23698 0.684783L0.692708 1.22283C-0.228058 2.13306 -0.228058 3.63868 0.692708 4.54891L2.2513 6.08967C2.21092 6.1661 2.19953 6.21798 2.15234 6.30978C1.9164 6.7688 1.60138 7.39687 1.28646 8.14402C0.656614 9.63833 0 11.538 0 13.3043V13.7935L0.445312 14.0136L5.19531 16.3614C5.50386 16.6755 6.88463 18 9.5 18C12.1154 18 13.4961 16.6755 13.8047 16.3614L18.5547 14.0136L19 13.7935V13.3043C19 11.538 18.3434 9.63825 17.7135 8.14402C17.2202 6.97365 16.9158 6.46099 16.724 6.11413L18.3073 4.54891C19.2281 3.63868 19.2281 2.13306 18.3073 1.22283L17.763 0.684783C16.8423 -0.225448 15.3192 -0.225448 14.3984 0.684783L13.6068 1.46739C13.0062 1.28553 11.245 0.782609 9.5 0.782609C7.75504 0.782609 5.99382 1.28553 5.39323 1.46739L4.60156 0.684783C4.14118 0.229667 3.52868 0 2.91927 0ZM16.0807 1.54076C16.2863 1.54076 16.4918 1.62922 16.6497 1.78533L17.194 2.32337C17.5098 2.63557 17.5098 3.13617 17.194 3.44837L15.2148 5.40489L14.7695 5.82065L15.0911 6.33424C15.0911 6.33424 15.663 7.35362 16.2539 8.75543C16.7837 10.0124 17.2422 11.5461 17.3424 12.8397L14.1758 14.4293C13.9975 13.0447 13.4129 10.8171 11.5286 9.53804L11.3307 9.3913H11.0833H7.91667H7.66927L7.47135 9.51359C5.57752 10.7629 4.99929 13.0032 4.82422 14.4049L1.65755 12.8397C1.75776 11.5461 2.21626 10.0125 2.74609 8.75543C3.04155 8.05447 3.34066 7.45059 3.5625 7.01902C3.67342 6.80324 3.77086 6.62176 3.83464 6.50543C3.86652 6.44727 3.89229 6.41257 3.90885 6.38315C3.91714 6.36844 3.90475 6.34145 3.90885 6.33424L4.03255 5.625L3.78516 5.40489L1.88021 3.49728L1.80599 3.44837C1.49017 3.13617 1.49017 2.63557 1.80599 2.32337L2.35026 1.78533C2.50817 1.62922 2.71841 1.56522 2.91927 1.56522C3.12013 1.56522 3.33037 1.62922 3.48828 1.78533L4.60156 2.91033L4.94792 3.22826L5.39323 3.10598C5.39323 3.10598 7.88727 2.34783 9.5 2.34783C11.1127 2.34783 13.6068 3.10598 13.6068 3.10598L14.0521 3.22826L14.3984 2.91033L15.5117 1.78533C15.6696 1.62922 15.8752 1.54076 16.0807 1.54076ZM6.72917 7.04348C6.07333 7.04348 5.54167 7.56906 5.54167 8.21739C5.54167 8.86573 6.07333 9.3913 6.72917 9.3913C7.385 9.3913 7.91667 8.86573 7.91667 8.21739C7.91667 7.56906 7.385 7.04348 6.72917 7.04348ZM12.2708 7.04348C11.615 7.04348 11.0833 7.56906 11.0833 8.21739C11.0833 8.86573 11.615 9.3913 12.2708 9.3913C12.9267 9.3913 13.4583 8.86573 13.4583 8.21739C13.4583 7.56906 12.9267 7.04348 12.2708 7.04348ZM8.26302 10.9565H10.7617C12.2656 12.1356 12.5807 14.6596 12.6419 15.3587C12.2184 15.7288 11.1878 16.4348 9.5 16.4348C7.81218 16.4348 6.78159 15.7288 6.35807 15.3587C6.42298 14.649 6.75289 12.0867 8.26302 10.9565ZM7.54557 12.5217L8.51042 14.087H10.4896L11.4544 12.5217H7.54557Z" fill="black"/>
</svg>
